<?xml version="1.0" encoding="UTF-8" standalone="no"?>
<!-- Created with Inkscape (http://www.inkscape.org/) -->

<svg
   width="264.58334mm"
   height="264.58331mm"
   viewBox="0 0 264.58334 264.58331"
   version="1.1"
   id="svg1"
   xmlns="http://www.w3.org/2000/svg"
   xmlns:svg="http://www.w3.org/2000/svg">
  <defs
     id="defs1" />
  <g
     id="layer1"
     transform="translate(280.45801,31.916999)">
    <g
       id="g5"
       transform="matrix(2.8833242,0,0,2.8833242,-294.4485,-117.90424)">
      <path
         style="fill:none;fill-opacity:1;stroke:none;stroke-width:0.840873;stroke-dasharray:none;stroke-opacity:1"
         id="rect4"
         width="91.763298"
         height="91.76329"
         x="4.85221"
         y="29.82226"
         d="m 7.4980433,29.82226 86.4716317,0 a 2.6458333,2.6458333 45 0 1 2.645833,2.645833 v 86.471627 a 2.6458333,2.6458333 135 0 1 -2.645833,2.64583 H 7.4980433 A 2.6458333,2.6458333 45 0 1 4.85221,118.93972 V 32.468093 A 2.6458333,2.6458333 135 0 1 7.4980433,29.82226 Z" />
      <g
         id="g4"
         transform="translate(-21.455915,-6.1680998)">
        <path
           style="baseline-shift:baseline;display:inline;overflow:visible;vector-effect:none;fill:#00539b;enable-background:accumulate;stop-color:#000000"
           d="m 60.076172,40.150391 c -1.747236,0 -3.173828,1.428545 -3.173828,3.175781 v 21.166015 c 0,1.175271 -0.941917,2.117188 -2.117188,2.117188 H 33.619141 c -1.747237,0 -3.175782,1.426592 -3.175782,3.173828 v 21.167969 c 0,1.747236 1.428545,3.173828 3.175782,3.173828 h 21.166015 c 1.175271,0 2.117188,0.941917 2.117188,2.117187 V 117.4082 c 0,1.74724 1.426592,3.17578 3.173828,3.17578 h 21.167969 c 1.747236,0 3.173828,-1.42854 3.173828,-3.17578 V 96.242187 c 0,-1.17527 0.941917,-2.117187 2.117187,-2.117187 h 21.166014 c 1.74724,0 3.17578,-1.426592 3.17578,-3.173828 V 69.783203 c 0,-1.747236 -1.42854,-3.173828 -3.17578,-3.173828 H 86.535156 c -1.17527,0 -2.117187,-0.941917 -2.117187,-2.117188 V 43.326172 c 0,-1.747236 -1.426592,-3.175781 -3.173828,-3.175781 z m 0,1.058593 h 21.167969 c 1.17527,0 2.115234,0.941917 2.115234,2.117188 v 21.166015 c 0,1.747237 1.428545,3.175782 3.175781,3.175782 h 21.166014 c 1.17527,0 2.11719,0.939964 2.11719,2.115234 v 21.167969 c 0,1.17527 -0.94192,2.115234 -2.11719,2.115234 H 86.535156 c -1.747236,0 -3.175781,1.428545 -3.175781,3.175781 V 117.4082 c 0,1.17527 -0.939964,2.11719 -2.115234,2.11719 H 60.076172 c -1.175271,0 -2.115234,-0.94192 -2.115235,-2.11719 V 96.242187 c 0,-1.747236 -1.428544,-3.175781 -3.175781,-3.175781 H 33.619141 c -1.175271,0 -2.117188,-0.939964 -2.117188,-2.115234 V 69.783203 c 0,-1.17527 0.941917,-2.115234 2.117188,-2.115234 h 21.166015 c 1.747237,0 3.175781,-1.428545 3.175781,-3.175782 V 43.326172 c 0,-1.175271 0.939964,-2.117188 2.115235,-2.117188 z"
           id="path1" />
        <path
           style="baseline-shift:baseline;display:inline;overflow:visible;vector-effect:none;fill:#008746;enable-background:accumulate;stop-color:#000000"
           d="m 63.135417,43.160027 c -1.747236,0 -3.173828,1.428545 -3.173828,3.175781 v 21.166015 c 0,1.175271 -0.941917,2.117188 -2.117188,2.117188 H 36.678386 c -1.747237,0 -3.175782,1.426592 -3.175782,3.173828 v 21.167969 c 0,1.747236 1.428545,3.173828 3.175782,3.173828 h 21.166015 c 1.175271,0 2.117188,0.941917 2.117188,2.117187 v 21.166017 c 0,1.74724 1.426592,3.17578 3.173828,3.17578 h 21.167969 c 1.747236,0 3.173828,-1.42854 3.173828,-3.17578 V 99.251823 c 0,-1.17527 0.941917,-2.117187 2.117187,-2.117187 h 21.166009 c 1.74724,0 3.17578,-1.426592 3.17578,-3.173828 V 72.792839 c 0,-1.747236 -1.42854,-3.173828 -3.17578,-3.173828 H 89.594401 c -1.17527,0 -2.117187,-0.941917 -2.117187,-2.117188 V 46.335808 c 0,-1.747236 -1.426592,-3.175781 -3.173828,-3.175781 z m 0,1.058593 h 21.167969 c 1.17527,0 2.115234,0.941917 2.115234,2.117188 v 21.166015 c 0,1.747237 1.428545,3.175782 3.175781,3.175782 h 21.166009 c 1.17527,0 2.11719,0.939964 2.11719,2.115234 v 21.167969 c 0,1.17527 -0.94192,2.115234 -2.11719,2.115234 H 89.594401 c -1.747236,0 -3.175781,1.428545 -3.175781,3.175781 v 21.166017 c 0,1.17527 -0.939964,2.11719 -2.115234,2.11719 H 63.135417 c -1.175271,0 -2.115234,-0.94192 -2.115235,-2.11719 V 99.251823 c 0,-1.747236 -1.428544,-3.175781 -3.175781,-3.175781 H 36.678386 c -1.175271,0 -2.117188,-0.939964 -2.117188,-2.115234 V 72.792839 c 0,-1.17527 0.941917,-2.115234 2.117188,-2.115234 h 21.166015 c 1.747237,0 3.175781,-1.428545 3.175781,-3.175782 V 46.335808 c 0,-1.175271 0.939964,-2.117188 2.115235,-2.117188 z"
           id="path1-2" />
        <path
           d="M 68.22116,64.674085 V 77.903252 H 54.991994 v 7.9375 H 68.22116 v 13.229166 h 7.9375 V 85.840752 h 13.229167 v -7.9375 H 76.15866 V 64.674085 Z"
           style="fill:#00539b;stroke-width:0.564992"
           id="path2" />
      </g>
    </g>
  </g>
</svg>
